<svg version="1.0" xmlns="http://www.w3.org/2000/svg" width="360" height="360" viewBox="0 0 270 270"><path d="M0 135v135h270V0H0v135zm143.7-84.4c9.2 4.4 15.9 14.1 17 24.8 1.2 11.1-5.4 23.2-15.7 29-5 2.8-6.3 3.1-14.5 3.1-7.4 0-9.7-.4-13.2-2.3-6.6-3.5-11-7.9-14-14-3.6-7.4-3.9-18.2-.6-25.3 7.3-16.1 25.1-22.7 41-15.3zM88 119.5c0 2.5.1 2.5 8 2.5s8 0 8-2.6c0-2.2.4-2.5 2.8-2.2 1.9.2 2.8.9 3 2.5.3 2.2.8 2.3 8.8 2.3 8.3 0 8.4 0 8.4 2.5s-.1 2.5-8.5 2.5c-6.9 0-8.5.3-8.5 1.5 0 1-1 1.5-3 1.5s-3-.5-3-1.5c0-1.2-1.6-1.5-8-1.5s-8 .3-8 1.5c0 1-1 1.5-3 1.5s-3-.5-3-1.5c0-1.2-1.6-1.5-8.5-1.5H65v-5.5l8.5.3 8.5.3v-2.5c0-2.2.4-2.6 3-2.6 2.5 0 3 .4 3 2.5zm28 19.9c0 4.6.3 9.1.6 9.9.5 1.3-1 1.5-10.9 1-8-.4-11.6-.2-12.1.6s3.8 1.1 16.3 1.1H127v2.5c0 2.3-.3 2.4-6.7 2.7l-6.8.3 3.5 2.3c1.9 1.2 5.4 2.8 7.8 3.4 4.5 1.3 5 2.3 2.8 5.4-1.5 1.9-1.6 1.9-6.3-.6-2.6-1.4-7.3-4.4-10.4-6.8-5.7-4.2-5.7-4.2-14.4-4.2-7.8 0-9 .3-12.1 2.6-4.1 3.1-4.3 4.4-.8 4.4h2.5l-2.6 4.9c-1.5 2.7-4.1 6.3-5.9 7.9l-3.1 3.1-2.5-2.1-2.4-2 3.2-2.6c3.2-2.6 7.2-7.9 7.2-9.5 0-.4-3.3 1.1-7.4 3.3l-7.5 4.1-1.6-3.1c-.9-1.8-1.5-3.3-1.3-3.4.2-.1 2.8-1 5.8-1.9 3-.9 6.9-2.6 8.5-3.7l3-2h-7.7c-7.6 0-7.8 0-7.8-2.5V152h11.4c7.5 0 11.7-.4 12.2-1.1.5-.9-1.1-1-6-.5l-6.6.8V131h41v8.4zm-20.8 29.8c-.2 5.7-.9 10.9-1.4 11.5-.6.7-2.9 1.3-5.3 1.3-3.6 0-4.4-.4-5.6-2.8-.7-1.5-1.5-3-1.6-3.3-.2-.3 1.6-.5 3.9-.5l4.3.1.3-8.3.3-8.2h5.5l-.4 10.2zm10.2.7c1.4 3.2 2.6 6.3 2.6 6.8 0 .9-5 3.7-5.4 3.1-.2-.2-1-3-2-6.3-.9-3.3-2-6.8-2.3-7.8-.4-1.3 0-1.7 1.9-1.7 2.1 0 3 1 5.2 5.9zm8.9-2.7c4.4 5.9 6.1 9.9 4.5 10.9-2 1.3-4.8 1.1-4.8-.4 0-.7-1.6-3.9-3.5-7.1-1.9-3.2-3.5-6-3.5-6.2 0-.2 1.1-.4 2.4-.4 1.6 0 3.3 1.1 4.9 3.2zm-21.4 26.6c-.5.2-.9 1.4-.9 2.7 0 1.3-.5 2.7-1.1 3.1-.8.4-.9-.1-.4-1.6.6-2 .5-2.1-1.7-.9-2.3 1.2-2.3 1.2-.5-.9 1.8-2 1.8-2-.5-2.5-2.1-.4-2-.4.5-.6 1.5 0 2.7-.6 2.7-1.1 0-.6.6-.5 1.4.2.8.7 1 1.4.5 1.6zm11.1-.4c-.1 1.4-1.9 3.6-4.5 5.6-2 1.4-2 1.4-.2-.7 1.8-2.1.9-4.1-1.3-2.8-1.3.8-1.3-.1.1-2.3 1.3-2 5.9-1.9 5.9.2zm10-.1c0 1.3-4 5.7-5.1 5.7-.5 0 .4-1.2 1.9-2.7 1.8-1.8 2.2-2.8 1.3-3.1-.7-.2-1.8.1-2.4.7-1.9 1.9-3.1 1.2-1.3-.8 1.8-1.9 5.6-1.8 5.6.2zm7.8 3.4c-.2.9-.9 1.8-1.6 1.9-.7.1-.8 0-.2-.3 1.2-.6 1.4-4.3.2-4.3-.5 0-1.3 1.2-1.9 2.7l-1.1 2.8.2-3c.2-4.2 1.7-5.8 3.4-3.4.7 1.1 1.2 2.7 1 3.6zm4.1-4.5c1.1 1.1 1.4 1 1.8-.1.5-1.1.7-1.1 1.4 0 .7 1.2.9 1.1.9-.1 0-1.3.1-1.3 1 0s1.1 1.3 2 0c1-1.6 1-1.5 1.3 3.7.2 2.8-.1 3.2-3 3.5-3 .4-3.3.2-3.3-2.4 0-1.5-.2-2.8-.4-2.8s-1.2-.3-2.2-.7c-1.4-.5-1.6-.3-1.1 1.3.7 1.9.7 1.9-.8 0-2.3-3-.3-4.9 2.4-2.4zm19.1.8c0 1.1-.6 2-1.2 2.1-.7 0-.4.4.7.9 1.7.7 1.7.9.3.9-1 .1-1.9.9-1.9 1.8-.1 1-.5.4-.9-1.2l-.7-3-1.1 2.7c-1.2 2.9-2.9 4-1.8 1.3.3-.8 0-1.5-.7-1.6-.8 0-.8-.2-.1-.5.6-.3.9-1.6.6-2.9-.4-2.3-.1-2.5 3.2-2.5 2.9 0 3.6.4 3.6 2zm6.4.1c-1.4.6-1.5.8-.4.9.8.2 2.1.1 2.9 0 1.2-.1 1.2.1 0 1.3-.8.7-2.1 1.6-2.9 2-1 .3-.7.6.8.6 1.2.1 2.2.5 2.2 1.1 0 1.2-2 1.3-3.9.1-1.3-.8-1.3-1.2 0-2.7 1.2-1.6 1.2-1.7-.2-1.2-1.1.5-1.6.1-1.5-1 .1-2.2 1.5-3.2 3.4-2.4 1.3.4 1.2.7-.4 1.3zm13.6-1.2c.3.1.5 1.8.5 3.9 0 3.2-.3 3.7-2.3 3.8-1.8.2-2-.1-1.1-1.2.8-1 .7-1.9-.5-3.6-1.5-2.1-1.6-2.1-1.5-.3.4 3.8-.1 5.7-1.3 5.3-.7-.3-1.3-1.6-1.3-3.1-.1-1.4.3-2.3.7-2.1.4.3.8 0 .8-.5 0-.6-.6-1.1-1.2-1.1-1 0-1-.2 0-.9 1.1-.6 4.4-.7 7.2-.2zm7.7-.3c-.3.3-1.2.4-1.9.1-.8-.3-.5-.6.6-.6 1.1-.1 1.7.2 1.3.5zm1.8 3.4c.8 1.3-1.2 4-2.9 4-.6 0-.3-.5.7-1.1 2.5-1.5 2.1-2.7-1-3.2l-2.8-.4 2.7-.2c1.5 0 3 .4 3.3.9z"/><path d="M122.3 53.3c-6.4 2.4-11.9 7.3-14.8 13.1-2.4 5-2.7 6.5-2.3 12.9.4 5.5 1.1 8.2 3 11.3 5.4 8.5 12.7 12.6 22.3 12.6 9.5 0 16.9-4.1 22.2-12.6 3.1-4.8 4.2-15.2 2.4-20.9-4.3-12.9-20.4-21-32.8-16.4zm21.3 13.9c.4.6 0 1.6-.9 2.3-1.5 1.1-1.5 1.3 0 2.8 2.2 2.2.9 3.3-2.4 2.1-4.3-1.5-5.1-3.9-2.2-6.3 2.7-2.3 4.5-2.6 5.5-.9zM124 68.9c.7 1.5.5 2.4-.8 4.1-1.6 1.9-2.2 2.1-4 1.1-2.1-1.1-3-5-1.5-6.4 1.3-1.4 5.3-.6 6.3 1.2zm-.8 16c3.4 4.8 10.1 5.1 14 .6 3.7-4.3 6.4-2.4 3.8 2.6-4 7.4-20.9 5.6-21.8-2.4-.4-3.2 2-3.7 4-.8zM81 137c0 .6 5.7 1 15 1s15-.4 15-1-5.7-1-15-1-15 .4-15 1zm0 7c0 .6 5.7 1 15 1s15-.4 15-1-5.7-1-15-1-15 .4-15 1zm19 50c0 .5.7 1 1.5 1s1.5-.5 1.5-1c0-.6-.7-1-1.5-1s-1.5.4-1.5 1zm29.1 1.7c-.1 1.8.4 2.3 2.2 2.2 1.5-.1 1.7-.3.5-.6-.9-.2-1.9-1.2-2.1-2.1-.3-1.2-.5-1-.6.5zm1.9-.7c0 .5.5 1 1 1 .6 0 1-.5 1-1 0-.6-.4-1-1-1-.5 0-1 .4-1 1zm32-.9c0 .5.5.7 1 .4.6-.3 1-.8 1-1.1 0-.2-.4-.4-1-.4-.5 0-1 .5-1 1.1z"/></svg>